<svg xmlns="http://www.w3.org/2000/svg" width="32" height="31">
    <g fill="none" stroke="#c5022e">
        <ellipse stroke="none" cx="16" cy="15.5" rx="16" ry="15.5"/>
        <ellipse cx="16" cy="15.5" rx="15.5" ry="15"/>
    </g>
    <g transform="translate(8.717 8.37)">
        <path fill="#c5022e" d="M10.027 0H4.255A4.259 4.259 0 000 4.253v5.774a4.259 4.259 0 004.255 4.253h5.772a4.259 4.259 0 004.255-4.253V4.253A4.259 4.259 0 0010.027 0zm-.349 9.037c0 1.556-5.015 1.861-5.015.305-.219-3.925-1.163-4.579.393-4.579 4.565-.51 4.186-.393 4.622 1z"/>
        <path fill="#c5022e" d="M7.141 3.024a4.117 4.117 0 104.116 4.116 4.121 4.121 0 00-4.116-4.116zm0 6.632A2.516 2.516 0 119.656 7.14a2.517 2.517 0 01-2.515 2.516z"/>
        <circle fill="#fff" cx=".885" cy=".885" r=".885" transform="translate(9.957 2.589)"/>
    </g>
</svg>