<svg xmlns="http://www.w3.org/2000/svg" width="32" height="31">\
    <g fill="none" stroke="#c5022e">
        <ellipse stroke="none" cx="16" cy="15.5" rx="16" ry="15.5"/>
        <ellipse cx="16" cy="15.5" rx="15.5" ry="15"/>
    </g>
    <g transform="translate(9 7.669)" fill="#c5022e">
        <path d="M14.117 9.626v4.144a.441.441 0 01-.442.44h-2.196a.44.44 0 01-.44-.44V9.753c0-.6.176-2.627-1.566-2.627-1.352 0-1.625 1.388-1.68 2.01v4.633a.44.44 0 01-.442.44H5.232a.441.441 0 01-.442-.44V5.128a.442.442 0 01.442-.442h2.119a.441.441 0 01.442.442v.747a3.01 3.01 0 012.831-1.331c3.512.001 3.493 3.279 3.493 5.082zM3.882 1.94A1.941 1.941 0 111.942 0a1.94 1.94 0 011.94 1.94z"/><rect width="3.003" height="9.523" rx=".327" transform="translate(.44 4.688)"/>
    </g>
</svg>