<svg xmlns="http://www.w3.org/2000/svg" width="32" height="31">
    <g stroke="#c5022e" fill="none">
        <ellipse stroke="none" cx="16" cy="15.5" rx="16" ry="15.5"/>
        <ellipse cx="16" cy="15.5" rx="15.5" ry="15"/>
    </g>
    <path fill="#c5022e" d="M24.681 19.066a24.7 24.7 0 00-1.807-1.818c-.552-.539-.587-.851-.143-1.472.485-.677 1-1.33 1.493-2a7.271 7.271 0 001.162-2.015c.152-.48.018-.692-.475-.777a1.581 1.581 0 00-.258-.015H21.73a.654.654 0 00-.686.471c-.172.432-.349.863-.554 1.278a10.467 10.467 0 01-1.71 2.628c-.161.17-.338.386-.606.3-.336-.122-.434-.675-.428-.862v-3.373c-.065-.482-.171-.7-.65-.79h-3.035a.964.964 0 00-.825.41c-.126.147-.163.242.094.291a1.012 1.012 0 01.863.926 10.382 10.382 0 01.043 2.429 2.275 2.275 0 01-.155.694.41.41 0 01-.7.2 2.821 2.821 0 01-.674-.741 16.353 16.353 0 01-1.783-3.3.769.769 0 00-.729-.546 76.919 76.919 0 00-2.631 0c-.527.01-.684.266-.469.744A32.621 32.621 0 0010.5 17.8a8.474 8.474 0 002.588 2.421 6.874 6.874 0 003.844.828c.636-.029.826-.195.856-.829a2.813 2.813 0 01.283-1.255.562.562 0 01.894-.217 2.524 2.524 0 01.484.431c.358.391.7.795 1.075 1.173a2.077 2.077 0 001.711.7h2.686c.433-.028.657-.56.41-1.042a5.2 5.2 0 00-.65-.944z"/>
</svg>