<svg xmlns="http://www.w3.org/2000/svg" width="32" height="31">
    <g stroke="#c5022e" fill="none">
        <ellipse stroke="none" cx="16" cy="15.5" rx="16" ry="15.5"/>
        <ellipse cx="16" cy="15.5" rx="15.5" ry="15"/>
    </g>
    <path fill="#c5022e" d="M20.171 10.383H11.26a3.164 3.164 0 00-3.165 3.165v4.454a3.164 3.164 0 003.165 3.165h8.911a3.165 3.165 0 003.165-3.165v-4.454a3.165 3.165 0 00-3.165-3.165zm-2.142 5.609l-4.167 1.988a.168.168 0 01-.24-.15v-4.1a.167.167 0 01.243-.149l4.168 2.113a.167.167 0 01-.004.298z"/>
</svg>